<mxfile host="65bd71144e">
    <diagram id="DKHXUZhNlKdjLY8K6CWP" name="第 1 页">
        <mxGraphModel dx="349" dy="647" grid="1" gridSize="10" guides="1" tooltips="1" connect="1" arrows="1" fold="1" page="1" pageScale="1" pageWidth="850" pageHeight="1100" background="#ffffff" math="0" shadow="0">
            <root>
                <mxCell id="0"/>
                <mxCell id="1" parent="0"/>
                <mxCell id="5" value="" style="whiteSpace=wrap;html=1;aspect=fixed;fillColor=#dae8fc;strokeColor=#6c8ebf;" vertex="1" parent="1">
                    <mxGeometry x="130" y="190" width="270" height="270" as="geometry"/>
                </mxCell>
                <mxCell id="6" value="layout" style="text;align=center;html=1;verticalAlign=middle;whiteSpace=wrap;rounded=0;fontStyle=1;fontColor=#000033;" vertex="1" parent="1">
                    <mxGeometry x="235" y="390" width="60" height="30" as="geometry"/>
                </mxCell>
                <mxCell id="7" value="&lt;b&gt;month/year&lt;/b&gt;" style="whiteSpace=wrap;html=1;aspect=fixed;fillColor=#f5f5f5;fontColor=#333333;strokeColor=#666666;" vertex="1" parent="1">
                    <mxGeometry x="195" y="240" width="140" height="140" as="geometry"/>
                </mxCell>
            </root>
        </mxGraphModel>
    </diagram>
</mxfile>